<svg viewBox="0 0 1200 320" xmlns="http://www.w3.org/2000/svg" font-family="'JetBrains Mono','Courier New',monospace">
  <defs>
    <pattern id="lg" width="24" height="24" patternUnits="userSpaceOnUse">
      <path d="M 24 0 L 0 0 0 24" fill="none" stroke="#161b1a" stroke-width="1"/>
    </pattern>
  </defs>
  <rect width="1200" height="320" fill="#0a0c0b"/>
  <rect width="1200" height="320" fill="url(#lg)"/>

  <text x="30" y="34" fill="#EAEAE6" font-size="14" letter-spacing="3" font-weight="700">LOG<tspan fill="#4a514f" font-size="10" font-weight="400" dx="14">FIG. 04 — LOG</tspan></text>
  <text x="1170" y="34" fill="#5a615f" font-size="11" text-anchor="end">STATIC — LAST REVISED 2026.07</text>
  <line x1="30" y1="46" x2="1170" y2="46" stroke="#2a302e" stroke-width="1"/>

  <!-- left column: metrics -->
  <g font-size="13">
    <text x="60" y="86" fill="#2DD4BF">problems_solved:</text>
    <text x="280" y="86" fill="#EAEAE6" font-weight="700">500+</text>
    <text x="340" y="86" fill="#5a615f" font-size="11"># LeetCode, DSA</text>

    <text x="60" y="116" fill="#2DD4BF">production_projects:</text>
    <text x="280" y="116" fill="#EAEAE6" font-weight="700">10+</text>

    <text x="60" y="146" fill="#2DD4BF">concurrent_users_max:</text>
    <text x="280" y="146" fill="#EAEAE6" font-weight="700">50+</text>
    <text x="340" y="146" fill="#5a615f" font-size="11"># CodexSpace stress test</text>
  </g>

  <line x1="60" y1="172" x2="540" y2="172" stroke="#2a302e" stroke-width="1"/>

  <g font-size="13">
    <text x="60" y="200" fill="#2DD4BF">certifications:</text>
    <text x="80" y="222" fill="#EAEAE6" font-size="11">— GenAI Powered Data Analytics</text>
    <text x="92" y="238" fill="#5a615f" font-size="10">Tata iQ, Forage</text>
    <text x="80" y="260" fill="#EAEAE6" font-size="11">— Front-End Software Engineering</text>
    <text x="92" y="276" fill="#5a615f" font-size="10">Skyscanner, Forage</text>
  </g>

  <!-- right column: leadership / status -->
  <line x1="600" y1="60" x2="600" y2="280" stroke="#2a302e" stroke-width="1"/>

  <g font-size="13">
    <text x="640" y="86" fill="#2DD4BF">leadership:</text>
    <text x="660" y="108" fill="#EAEAE6" font-size="11">— Vice President (Tech &amp; Media)</text>
    <text x="672" y="124" fill="#5a615f" font-size="10">PPGS, HIT</text>
  </g>

  <line x1="640" y1="146" x2="1140" y2="146" stroke="#2a302e" stroke-width="1"/>

  <text x="640" y="176" fill="#2DD4BF" font-size="13">status:</text>
  <text x="640" y="202" fill="#F5A623" font-size="13" font-weight="700">open to full-stack, real-time,</text>
  <text x="640" y="222" fill="#F5A623" font-size="13" font-weight="700">3D web, and GenAI-integration work</text>
  <rect x="1042" y="212" width="9" height="14" fill="#F5A623">
    <animate attributeName="opacity" values="1;1;0;0;1" keyTimes="0;0.45;0.5;0.95;1" dur="1.1s" repeatCount="indefinite"/>
  </rect>

  <circle cx="640" cy="246" r="3" fill="#2DD4BF"/>
  <text x="652" y="250" fill="#5a615f" font-size="10" letter-spacing="1">AVAILABILITY: ACTIVE</text>

  <line x1="30" y1="280" x2="1170" y2="280" stroke="#2a302e" stroke-width="1"/>
  <text x="30" y="300" fill="#5a615f" font-size="10" letter-spacing="2">COMPILED FROM RESUME + GITHUB DATA</text>
  <text x="1170" y="300" fill="#5a615f" font-size="10" letter-spacing="2" text-anchor="end">EOF</text>
</svg>
