<svg viewBox="0 0 1200 320" xmlns="http://www.w3.org/2000/svg" font-family="'JetBrains Mono','Courier New',monospace">
  <defs>
    <pattern id="g" width="24" height="24" patternUnits="userSpaceOnUse">
      <path d="M 24 0 L 0 0 0 24" fill="none" stroke="#161b1a" stroke-width="1"/>
    </pattern>
  </defs>
  <rect width="1200" height="320" fill="#0a0c0b"/>
  <rect width="1200" height="320" fill="url(#g)"/>

  <text x="30" y="34" fill="#EAEAE6" font-size="14" letter-spacing="3" font-weight="700">SYSTEM STATUS - LIVE READOUT</text>
  <text x="1170" y="34" fill="#5a615f" font-size="11" text-anchor="end">LAST SYNCED 2026-07-17</text>
  <line x1="30" y1="46" x2="1170" y2="46" stroke="#2a302e" stroke-width="1"/>

  <text x="60" y="90" fill="#5a615f" font-size="11" letter-spacing="2">COMMIT ACTIVITY - LAST 26 WEEKS</text>
  <path d="M 60.0 200.0 L 60.0 183.6 L 79.2 198.4 L 98.4 200.0 L 117.6 200.0 L 136.8 170.5 L 156.0 191.8 L 175.2 188.5 L 194.4 200.0 L 213.6 200.0 L 232.8 200.0 L 252.0 200.0 L 271.2 200.0 L 290.4 200.0 L 309.6 200.0 L 328.8 190.2 L 348.0 200.0 L 367.2 132.9 L 386.4 193.5 L 405.6 175.5 L 424.8 200.0 L 444.0 200.0 L 463.2 198.4 L 482.4 188.5 L 501.6 110.0 L 520.8 198.4 L 540.0 200.0 L 540.0 200.0 Z" fill="#2DD4BF" opacity="0.12"/><path d="M 60.0 183.6 L 79.2 198.4 L 98.4 200.0 L 117.6 200.0 L 136.8 170.5 L 156.0 191.8 L 175.2 188.5 L 194.4 200.0 L 213.6 200.0 L 232.8 200.0 L 252.0 200.0 L 271.2 200.0 L 290.4 200.0 L 309.6 200.0 L 328.8 190.2 L 348.0 200.0 L 367.2 132.9 L 386.4 193.5 L 405.6 175.5 L 424.8 200.0 L 444.0 200.0 L 463.2 198.4 L 482.4 188.5 L 501.6 110.0 L 520.8 198.4 L 540.0 200.0" fill="none" stroke="#2DD4BF" stroke-width="1.6"/>
  <line x1="60" y1="200" x2="540" y2="200" stroke="#2a302e" stroke-width="1"/>
  <text x="60" y="220" fill="#2DD4BF" font-size="12">649 contributions tracked this year</text>

  <text x="800" y="60" fill="#5a615f" font-size="11" letter-spacing="2">LANGUAGE DISTRIBUTION</text>
  <polygon points="880.0,130.3 905.7,145.2 905.7,174.8 880.0,189.7 854.3,174.9 854.3,145.2" fill="none" stroke="#2a302e" stroke-width="1"/><polygon points="880.0,100.6 931.4,130.3 931.4,189.7 880.0,219.4 828.6,189.7 828.6,130.3" fill="none" stroke="#2a302e" stroke-width="1"/><polygon points="880.0,70.0 957.9,115.0 957.9,205.0 880.0,250.0 802.1,205.0 802.1,115.0" fill="none" stroke="#2a302e" stroke-width="1"/><line x1="880" y1="160" x2="880.0" y2="70.0" stroke="#2a302e" stroke-width="1"/><line x1="880" y1="160" x2="925.2" y2="133.9" stroke="#2a302e" stroke-width="1"/><line x1="880" y1="160" x2="920.6" y2="183.4" stroke="#2a302e" stroke-width="1"/><line x1="880" y1="160" x2="880.0" y2="196.2" stroke="#2a302e" stroke-width="1"/><line x1="880" y1="160" x2="859.2" y2="172.0" stroke="#2a302e" stroke-width="1"/><line x1="880" y1="160" x2="860.1" y2="148.5" stroke="#2a302e" stroke-width="1"/><polygon points="880.0,70.0 925.2,133.9 920.6,183.4 880.0,196.2 859.2,172.0 860.1,148.5" fill="#F5A623" fill-opacity="0.15" stroke="#F5A623" stroke-width="1.6"/><circle cx="880.0" cy="70.0" r="3" fill="#F5A623"/><text x="880.0" y="70.0" fill="#5a615f" font-size="10" text-anchor="middle">JAVASCRIPT 49%</text><circle cx="925.2" cy="133.9" r="3" fill="#F5A623"/><text x="941.2" y="133.9" fill="#5a615f" font-size="10" text-anchor="start">TYPESCRIPT 22%</text><circle cx="920.6" cy="183.4" r="3" fill="#F5A623"/><text x="936.6" y="183.4" fill="#5a615f" font-size="10" text-anchor="start">CSS 18%</text><circle cx="880.0" cy="196.2" r="3" fill="#F5A623"/><text x="880.0" y="196.2" fill="#5a615f" font-size="10" text-anchor="middle">HTML 10%</text><circle cx="859.2" cy="172.0" r="3" fill="#F5A623"/><text x="843.2" y="172.0" fill="#5a615f" font-size="10" text-anchor="end">EJS 1%</text><circle cx="860.1" cy="148.5" r="3" fill="#F5A623"/><text x="844.1" y="148.5" fill="#5a615f" font-size="10" text-anchor="end">PYTHON 0%</text>

  <line x1="30" y1="280" x2="1170" y2="280" stroke="#2a302e" stroke-width="1"/>
  <text x="30" y="300" fill="#5a615f" font-size="10" letter-spacing="2">AUTO-REGENERATED VIA GITHUB ACTIONS - github.com/anshu-c8NETed</text>
  <text x="1170" y="300" fill="#5a615f" font-size="10" letter-spacing="2" text-anchor="end">NO THIRD-PARTY BADGE SERVICE</text>
</svg>