<svg viewBox="0 0 1200 320" xmlns="http://www.w3.org/2000/svg" font-family="'JetBrains Mono','Courier New',monospace">
  <defs>
    <pattern id="g" width="24" height="24" patternUnits="userSpaceOnUse">
      <path d="M 24 0 L 0 0 0 24" fill="none" stroke="#161b1a" stroke-width="1"/>
    </pattern>
  </defs>
  <rect width="1200" height="320" fill="#0a0c0b"/>
  <rect width="1200" height="320" fill="url(#g)"/>

  <text x="30" y="34" fill="#EAEAE6" font-size="14" letter-spacing="3" font-weight="700">SYSTEM STATUS - LIVE READOUT</text>
  <text x="1170" y="34" fill="#5a615f" font-size="11" text-anchor="end">LAST SYNCED 2026-06-30</text>
  <line x1="30" y1="46" x2="1170" y2="46" stroke="#2a302e" stroke-width="1"/>

  <text x="60" y="90" fill="#5a615f" font-size="11" letter-spacing="2">COMMIT ACTIVITY - LAST 26 WEEKS</text>
  <path d="M 60.0 200.0 L 60.0 200.0 L 79.2 200.0 L 98.4 200.0 L 117.6 200.0 L 136.8 200.0 L 156.0 200.0 L 175.2 200.0 L 194.4 200.0 L 213.6 200.0 L 232.8 200.0 L 252.0 200.0 L 271.2 200.0 L 290.4 200.0 L 309.6 200.0 L 328.8 200.0 L 348.0 200.0 L 367.2 200.0 L 386.4 200.0 L 405.6 200.0 L 424.8 200.0 L 444.0 200.0 L 463.2 200.0 L 482.4 200.0 L 501.6 200.0 L 520.8 200.0 L 540.0 200.0 L 540.0 200.0 Z" fill="#2DD4BF" opacity="0.12"/><path d="M 60.0 200.0 L 79.2 200.0 L 98.4 200.0 L 117.6 200.0 L 136.8 200.0 L 156.0 200.0 L 175.2 200.0 L 194.4 200.0 L 213.6 200.0 L 232.8 200.0 L 252.0 200.0 L 271.2 200.0 L 290.4 200.0 L 309.6 200.0 L 328.8 200.0 L 348.0 200.0 L 367.2 200.0 L 386.4 200.0 L 405.6 200.0 L 424.8 200.0 L 444.0 200.0 L 463.2 200.0 L 482.4 200.0 L 501.6 200.0 L 520.8 200.0 L 540.0 200.0" fill="none" stroke="#2DD4BF" stroke-width="1.6"/>
  <line x1="60" y1="200" x2="540" y2="200" stroke="#2a302e" stroke-width="1"/>
  <text x="60" y="220" fill="#2DD4BF" font-size="12">0 contributions tracked this year</text>

  <text x="800" y="60" fill="#5a615f" font-size="11" letter-spacing="2">LANGUAGE DISTRIBUTION</text>
  <polygon points="880.0,130.3 905.7,145.2 905.7,174.8 880.0,189.7 854.3,174.9 854.3,145.2" fill="none" stroke="#2a302e" stroke-width="1"/><polygon points="880.0,100.6 931.4,130.3 931.4,189.7 880.0,219.4 828.6,189.7 828.6,130.3" fill="none" stroke="#2a302e" stroke-width="1"/><polygon points="880.0,70.0 957.9,115.0 957.9,205.0 880.0,250.0 802.1,205.0 802.1,115.0" fill="none" stroke="#2a302e" stroke-width="1"/><line x1="880" y1="160" x2="880.0" y2="70.0" stroke="#2a302e" stroke-width="1"/><line x1="880" y1="160" x2="936.0" y2="127.7" stroke="#2a302e" stroke-width="1"/><line x1="880" y1="160" x2="921.4" y2="183.9" stroke="#2a302e" stroke-width="1"/><line x1="880" y1="160" x2="880.0" y2="199.4" stroke="#2a302e" stroke-width="1"/><line x1="880" y1="160" x2="851.7" y2="176.3" stroke="#2a302e" stroke-width="1"/><line x1="880" y1="160" x2="854.7" y2="145.4" stroke="#2a302e" stroke-width="1"/><polygon points="880.0,70.0 936.0,127.7 921.4,183.9 880.0,199.4 851.7,176.3 854.7,145.4" fill="#F5A623" fill-opacity="0.15" stroke="#F5A623" stroke-width="1.6"/><circle cx="880.0" cy="70.0" r="3" fill="#F5A623"/><text x="880.0" y="70.0" fill="#5a615f" font-size="10" text-anchor="middle">JAVASCRIPT 40%</text><circle cx="936.0" cy="127.7" r="3" fill="#F5A623"/><text x="952.0" y="127.7" fill="#5a615f" font-size="10" text-anchor="start">TYPESCRIPT 25%</text><circle cx="921.4" cy="183.9" r="3" fill="#F5A623"/><text x="937.4" y="183.9" fill="#5a615f" font-size="10" text-anchor="start">C++ 15%</text><circle cx="880.0" cy="199.4" r="3" fill="#F5A623"/><text x="880.0" y="199.4" fill="#5a615f" font-size="10" text-anchor="middle">PYTHON 10%</text><circle cx="851.7" cy="176.3" r="3" fill="#F5A623"/><text x="835.7" y="176.3" fill="#5a615f" font-size="10" text-anchor="end">CSS 6%</text><circle cx="854.7" cy="145.4" r="3" fill="#F5A623"/><text x="838.7" y="145.4" fill="#5a615f" font-size="10" text-anchor="end">HTML 4%</text>

  <line x1="30" y1="280" x2="1170" y2="280" stroke="#2a302e" stroke-width="1"/>
  <text x="30" y="300" fill="#5a615f" font-size="10" letter-spacing="2">AUTO-REGENERATED VIA GITHUB ACTIONS - github.com/anshu-c8NETed</text>
  <text x="1170" y="300" fill="#5a615f" font-size="10" letter-spacing="2" text-anchor="end">NO THIRD-PARTY BADGE SERVICE</text>
</svg>